#!OML:ASF E:\motion texture\Top Level 1\Subject 1\Session 1\male.ASF
:FULLY-SPECIFIED
:DEGREES
291
root -15.3969 17.9811 4.2395 307.508 -84.9278 -306.205
lowerback 4.0272 -4.61614 -6.38291
upperback -2.37964 -6.48881 1.74313
thorax -3.8225 -3.03578 5.80167
lowerneck -21.5733 -1.22596 -3.31571
upperneck 18.4345 -1.8127 4.87637
head 9.45131 -0.534455 1.98131
rclavicle -1.92945e-014 2.06736e-014
rhumerus -59.4051 0.862552 -68.4862
rradius 47.0691
rwrist 1.06301
rhand -9.98097 -7.13921
rfingers 7.12502
rthumb 16.002 -36.4983
lclavicle -1.92945e-014 2.06736e-014
lhumerus -10.824 -25.3577 89.975
lradius 70.3009
lwrist 0.433082
lhand -9.74054 4.04827
lfingers 7.12502
lthumb 16.2335 33.3886
rfemur -76.1506 -8.94508 20.4798
rtibia 72.0488
rfoot 205.617 -190.739
rtoes 24.7244
lfemur 9.22468 -8.10668 -29.5482
ltibia 19.31
lfoot 528.034 -185.807
ltoes -11.3683
292
root -15.5672 17.9571 4.22568 308.609 -84.9061 -307
lowerback 3.67622 -4.61635 -6.36014
upperback -2.47836 -6.46873 1.76172
thorax -3.73085 -3.02891 5.77844
lowerneck -21.5008 -1.26526 -3.34647
upperneck 18.4058 -1.86024 4.88535
head 9.43093 -0.558915 1.9822
rclavicle 5.55603e-014 7.15625e-015
rhumerus -58.9211 0.949793 -68.9622
rradius 47.3691
rwrist 0.993214
rhand -9.99737 -7.15776
rfingers 7.12502
rthumb 15.9862 -36.5181
lclavicle 5.55603e-014 7.15625e-015
lhumerus -11.4424 -25.2775 90.2921
lradius 70.1087
lwrist 0.229546
lhand -9.59406 4.00665
lfingers 7.12502
lthumb 16.3745 33.3354
rfemur -74.3767 -9.11964 20.4154
rtibia 70.345
rfoot 206.479 -190.662
rtoes 25.6171
lfemur 9.55442 -8.12682 -29.3969
ltibia 19.1941
lfoot 528.047 -186.117
ltoes -12.1273
293
root -15.7415 17.9315 4.21089 310.081 -84.9056 -308.204
lowerback 3.33484 -4.61402 -6.30508
upperback -2.56778 -6.44395 1.78647
thorax -3.63813 -3.02076 5.74421
lowerneck -21.4281 -1.30644 -3.37476
upperneck 18.379 -1.91372 4.90407
head 9.4116 -0.584897 1.98528
rclavicle 6.73383e-014 1.66979e-014
rhumerus -58.4279 1.00469 -69.4393
rradius 47.6917
rwrist 0.906745
rhand -9.99301 -7.20834
rfingers 7.12502
rthumb 15.9904 -36.5684
lclavicle 6.73383e-014 1.66979e-014
lhumerus -12.096 -25.2023 90.6387
lradius 69.8869
lwrist -0.0260171
lhand -9.45735 3.97042
lfingers 7.12502
lthumb 16.5062 33.2883
rfemur -72.4427 -9.27871 20.3575
rtibia 68.6083
rfoot 207.31 -190.485
rtoes 26.4481
lfemur 9.93449 -8.12159 -29.1861
ltibia 19.0781
lfoot 528.076 -186.447
ltoes -12.9287
294
root -15.9205 17.9043 4.19492 311.849 -84.9258 -309.736
lowerback 2.98986 -4.6062 -6.22362
upperback -2.64905 -6.41037 1.81691
thorax -3.53809 -3.00937 5.70046
lowerneck -21.3607 -1.34844 -3.40084
upperneck 18.3685 -1.97162 4.93023
head 9.39926 -0.6119 1.99019
rclavicle 3.75952e-014 -3.18055e-015
rhumerus -57.9279 1.03053 -69.9231
rradius 48.0351
rwrist 0.801781
rhand -9.97158 -7.29467
rfingers 7.12502
rthumb 16.011 -36.653
lclavicle 3.75952e-014 -3.18055e-015
lhumerus -12.7815 -25.1289 91.0178
lradius 69.6184
lwrist -0.322474
lhand -9.33604 3.93608
lfingers 7.12502
lthumb 16.6229 33.2442
rfemur -70.3544 -9.40604 20.303
rtibia 66.8386
rfoot 208.095 -190.22
rtoes 27.1843
lfemur 10.358 -8.08864 -28.9186
ltibia 18.966
lfoot 528.133 -186.796
ltoes -13.7536
295
root -16.1044 17.8759 4.17771 313.852 -84.9508 -311.527
lowerback 2.63585 -4.59602 -6.13013
upperback -2.73061 -6.37327 1.84886
thorax -3.43473 -2.99668 5.651
lowerneck -21.2927 -1.39158 -3.42218
upperneck 18.3851 -2.03484 4.95865
head 9.39652 -0.640886 1.99463
rclavicle -3.0091e-014 -4.77083e-015
rhumerus -57.4256 1.03886 -70.4239
rradius 48.3864
rwrist 0.691067
rhand -9.94736 -7.38574
rfingers 7.12502
rthumb 16.0343 -36.7422
lclavicle -3.0091e-014 -4.77083e-015
lhumerus -13.5142 -25.0568 91.428
lradius 69.2971
lwrist -0.640891
lhand -9.24484 3.91018
lfingers 7.12502
lthumb 16.7107 33.2109
rfemur -68.1267 -9.50019 20.238
rtibia 65.0445
rfoot 208.816 -189.91
rtoes 27.7937
lfemur 10.7961 -8.02183 -28.6028
ltibia 18.8867
lfoot 528.235 -187.183
ltoes -14.548
296
root -16.2937 17.8466 4.1589 316.053 -84.9732 -313.536
lowerback 2.26559 -4.58401 -6.03759
upperback -2.81435 -6.33375 1.88252
thorax -3.32447 -2.98298 5.60269
lowerneck -21.215 -1.43877 -3.44587
upperneck 18.422 -2.10583 4.99235
head 9.39965 -0.673288 2.00041
rclavicle 2.28602e-015 -2.06736e-014
rhumerus -56.9227 1.0355 -70.9496
rradius 48.7472
rwrist 0.580637
rhand -9.92207 -7.50964
rfingers 7.12502
rthumb 16.0587 -36.8642
lclavicle 2.28602e-015 -2.06736e-014
lhumerus -14.2939 -24.9869 91.8679
lradius 68.9114
lwrist -0.962329
lhand -9.19037 3.89432
lfingers 7.12502
lthumb 16.7632 33.1906
rfemur -65.7608 -9.55659 20.1593
rtibia 63.2195
rfoot 209.491 -189.621
rtoes 28.349
lfemur 11.2413 -7.92929 -28.2435
ltibia 18.8433
lfoot 528.411 -187.617
ltoes -15.3064
297
root -16.4891 17.8169 4.13832 318.433 -84.9861 -315.736
lowerback 1.86505 -4.5713 -5.95347
upperback -2.90051 -6.29285 1.91774
thorax -3.19879 -2.96897 5.55827
lowerneck -21.1375 -1.49141 -3.47581
upperneck 18.4914 -2.18615 5.03331
head 9.41485 -0.709744 2.00878
rclavicle 9.45967e-014 1.11319e-014
rhumerus -56.4161 1.03191 -71.5101
rradius 49.1106
rwrist 0.468034
rhand -9.91206 -7.67021
rfingers 7.12502
rthumb 16.0683 -37.024
lclavicle 9.45967e-014 1.11319e-014
lhumerus -15.1219 -24.9211 92.3345
lradius 68.458
lwrist -1.25919
lhand -9.19029 3.89566
lfingers 7.12502
lthumb 16.7633 33.192
rfemur -63.2594 -9.57762 20.0729
rtibia 61.3652
rfoot 210.107 -189.395
rtoes 28.8391
lfemur 11.6674 -7.8159 -27.8424
ltibia 18.8687
lfoot 528.674 -188.103
ltoes -16.097
298
root -16.6912 17.7872 4.11558 321.059 -84.9849 -318.192
lowerback 1.42635 -4.56548 -5.88269
upperback -2.9849 -6.26017 1.95884
thorax -3.04668 -2.95979 5.5241
lowerneck -21.0331 -1.55156 -3.50866
upperneck 18.5522 -2.27465 5.06596
head 9.42255 -0.751659 2.01344
rclavicle -7.04443e-014 -1.59028e-015
rhumerus -55.8864 1.04297 -72.1177
rradius 49.466
rwrist 0.356604
rhand -9.95486 -7.82831
rfingers 7.12502
rthumb 16.0271 -37.1854
lclavicle -7.04443e-014 -1.59028e-015
lhumerus -15.9955 -24.8544 92.8134
lradius 67.935
lwrist -1.5234
lhand -9.2216 3.90909
lfingers 7.12502
lthumb 16.7331 33.2079
rfemur -60.6094 -9.5642 19.9874
rtibia 59.4531
rfoot 210.547 -189.243
rtoes 29.015
lfemur 12.0741 -7.69506 -27.3935
ltibia 18.9625
lfoot 529.061 -188.656
ltoes -16.9012
299
root -16.9006 17.7581 4.09051 323.901 -84.9584 -320.872
lowerback 0.92317 -4.56906 -5.83391
upperback -3.06097 -6.23756 2.00637
thorax -2.84545 -2.95717 5.50262
lowerneck -20.9194 -1.61617 -3.55429
upperneck 18.6243 -2.36673 5.09956
head 9.43293 -0.796266 2.02018
rclavicle 4.16205e-014 -7.95139e-015
rhumerus -55.3254 1.09 -72.787
rradius 49.816
rwrist 0.223503
rhand -10.0616 -7.99633
rfingers 7.12502
rthumb 15.9244 -37.3617
lclavicle 4.16205e-014 -7.95139e-015
lhumerus -16.9123 -24.7757 93.3063
lradius 67.3414
lwrist -1.75704
lhand -9.27907 3.93588
lfingers 7.12502
lthumb 16.6778 33.2394
rfemur -57.7979 -9.52048 19.8984
rtibia 57.4752
rfoot 210.352 -189.149
rtoes 28.0128
lfemur 12.424 -7.57378 -26.9014
ltibia 19.186
lfoot 529.575 -189.281
ltoes -17.7653
300
root -17.1175 17.73 4.06299 326.959 -84.9003 -323.776
lowerback 0.359794 -4.58215 -5.80429
upperback -3.12922 -6.2252 2.05974
thorax -2.59855 -2.96107 5.49205
lowerneck -20.8067 -1.68554 -3.60598
upperneck 18.7025 -2.46174 5.12364
head 9.44577 -0.843772 2.02429
rclavicle -3.87879e-014 8.74653e-015
rhumerus -54.7235 1.18104 -73.5265
rradius 50.1549
rwrist 0.0476391
rhand -10.2458 -8.16169
rfingers 7.12502
rthumb 15.7469 -37.5411
lclavicle -3.87879e-014 8.74653e-015
lhumerus -17.8815 -24.6871 93.8114
lradius 66.6856
lwrist -1.96687
lhand -9.34769 3.99656
lfingers 7.12502
lthumb 16.6117 33.3056
rfemur -54.822 -9.454 19.8209
rtibia 55.4544
rfoot 209.046 -188.878
rtoes 25.5647
lfemur 12.6897 -7.45827 -26.3614
ltibia 19.5839
lfoot 530.242 -189.985
ltoes -18.6694
301
root -17.3413 17.7027 4.03338 330.084 -84.7988 -326.744
lowerback -0.265488 -4.60504 -5.80056
upperback -3.20037 -6.22379 2.11684
thorax -2.31586 -2.9711 5.49437
lowerneck -20.6878 -1.75925 -3.66446
upperneck 18.7993 -2.55769 5.1289
head 9.46384 -0.894505 2.02302
rclavicle -2.35808e-014 -9.54166e-015
rhumerus -54.0886 1.3408 -74.3486
rradius 50.4901
rwrist -0.184315
rhand -10.477 -8.29423
rfingers 7.12502
rthumb 15.5242 -37.691
lclavicle -2.35808e-014 -9.54166e-015
lhumerus -18.9202 -24.5789 94.3367
lradius 65.9647
lwrist -2.16742
lhand -9.4424 4.07665
lfingers 7.12502
lthumb 16.5205 33.3933
rfemur -51.7318 -9.38844 19.7701
rtibia 53.4356
rfoot 206.329 -188.175
rtoes 21.7797
lfemur 12.8036 -7.34321 -25.7792
ltibia 20.2312
lfoot 531.095 -190.78
ltoes -19.5593
302
root -17.5701 17.6767 4.00182 333.197 -84.6669 -329.701
lowerback -0.917278 -4.62528 -5.8094
upperback -3.2827 -6.21843 2.17677
thorax -2.02944 -2.97876 5.50527
lowerneck -20.5663 -1.84152 -3.7317
upperneck 18.9192 -2.65905 5.11137
head 9.48962 -0.951095 2.01472
rclavicle 4.93731e-014 -9.54166e-015
rhumerus -53.4276 1.56278 -75.251
rradius 50.8297
rwrist -0.476385
rhand -10.7502 -8.39866
rfingers 7.12502
rthumb 15.2612 -37.8157
lclavicle 4.93731e-014 -9.54166e-015
lhumerus -20.0292 -24.4606 94.8856
lradius 65.1694
lwrist -2.37162
lhand -9.54837 4.17862
lfingers 7.12502
lthumb 16.4185 33.5038
rfemur -48.5861 -9.31423 19.7728
rtibia 51.4308
rfoot 202.24 -187.007
rtoes 17.2841
lfemur 12.7286 -7.22163 -25.1412
ltibia 21.1765
lfoot 532.195 -191.66
ltoes -20.3785
